HIERARCHY
ROOT Hips
{
 OFFSET 0.000000 0.000000 0.000000
 CHANNELS 6 Xposition Yposition Zposition Yrotation Xrotation Zrotation
 JOINT Chest
 {
  OFFSET 0.000000 9.585900 0.002600
  CHANNELS 3 Yrotation Xrotation Zrotation
  JOINT Chest2
  {
   OFFSET 0.000000 9.601200 -0.005300
   CHANNELS 3 Yrotation Xrotation Zrotation
   JOINT Chest3
   {
    OFFSET 0.000000 9.561800 0.000000
    CHANNELS 3 Yrotation Xrotation Zrotation
    JOINT Chest4
    {
     OFFSET 0.000000 9.552100 0.000000
     CHANNELS 3 Yrotation Xrotation Zrotation
     JOINT Neck
     {
      OFFSET 0.000000 14.453000 0.000000
      CHANNELS 3 Yrotation Xrotation Zrotation
      JOINT Head
      {
       OFFSET 0.000000 8.936500 -0.011300
       CHANNELS 3 Yrotation Xrotation Zrotation
       End Site
       {
        OFFSET 0.000000 17.073600 -0.006000
       }
      }
     }
     JOINT RightCollar
     {
      OFFSET -2.921100 9.558500 0.000000
      CHANNELS 3 Yrotation Xrotation Zrotation
      JOINT RightShoulder
      {
       OFFSET -13.519700 0.000000 0.000000
       CHANNELS 3 Yrotation Xrotation Zrotation
       JOINT RightElbow
       {
        OFFSET 0.000000 -29.696600 0.000000
        CHANNELS 3 Yrotation Xrotation Zrotation
        JOINT RightWrist
        {
         OFFSET 0.000000 -24.004700 0.000000
         CHANNELS 3 Yrotation Xrotation Zrotation
         End Site
         {
          OFFSET 0.000000 -17.728500 0.000000
         }
        }
       }
      }
     }
     JOINT LeftCollar
     {
      OFFSET 2.921100 9.558500 0.000000
      CHANNELS 3 Yrotation Xrotation Zrotation
      JOINT LeftShoulder
      {
       OFFSET 13.519700 0.000000 0.000000
       CHANNELS 3 Yrotation Xrotation Zrotation
       JOINT LeftElbow
       {
        OFFSET 0.000000 -29.696600 0.000000
        CHANNELS 3 Yrotation Xrotation Zrotation
        JOINT LeftWrist
        {
         OFFSET 0.000000 -24.004700 0.000000
         CHANNELS 3 Yrotation Xrotation Zrotation
         End Site
         {
          OFFSET 0.000000 -17.728500 0.000000
         }
        }
       }
      }
     }
    }
   }
  }
 }
 JOINT RightHip
 {
  OFFSET -7.771700 -0.012900 -0.001300
  CHANNELS 3 Yrotation Xrotation Zrotation
  JOINT RightKnee
  {
   OFFSET 0.000000 -40.869800 0.001200
   CHANNELS 3 Yrotation Xrotation Zrotation
   JOINT RightAnkle
   {
    OFFSET 0.000000 -39.717900 0.002100
    CHANNELS 3 Yrotation Xrotation Zrotation
    JOINT RightToe
    {
     OFFSET 0.000000 -4.965400 11.033500
     CHANNELS 3 Yrotation Xrotation Zrotation
     End Site
     {
      OFFSET 0.000000 -1.423100 5.872300
     }
    }
   }
  }
 }
 JOINT LeftHip
 {
  OFFSET 7.771700 -0.012900 -0.001300
  CHANNELS 3 Yrotation Xrotation Zrotation
  JOINT LeftKnee
  {
   OFFSET 0.000000 -40.869800 0.001200
   CHANNELS 3 Yrotation Xrotation Zrotation
   JOINT LeftAnkle
   {
    OFFSET 0.000000 -39.717900 0.002100
    CHANNELS 3 Yrotation Xrotation Zrotation
    JOINT LeftToe
    {
     OFFSET 0.000000 -4.965400 11.033500
     CHANNELS 3 Yrotation Xrotation Zrotation
     End Site
     {
      OFFSET 0.000000 -1.423100 5.872300
     }
    }
   }
  }
 }
}
MOTION
Frames: 11
Frame Time: 0.008333
-27.315564 55.058026 7.067171 -176.479452 -21.153061 -1.908712 -2.008868 18.829481 1.365864 -0.270562 2.196381 0.221215 -0.451014 3.675365 0.372389 -1.859436 16.301400 1.421235 3.817823 16.564301 -8.743372 6.275381 -7.744560 -10.574999 3.448142 4.024635 -0.900339 5.750855 -14.597289 -11.880585 -33.884921 -80.404742 54.381097 3.252776 17.121004 5.010834 -4.303385 3.065940 0.617249 7.590630 -18.860960 5.606922 18.807731 -69.888323 -40.861187 -4.193022 5.985381 6.551777 0.124802 -54.419847 10.481693 -83.909658 86.993179 -88.919805 -10.172221 -19.901534 10.402151 0.051705 -0.050870 -0.119984 10.189358 -50.319039 -6.002555 108.830754 77.277960 105.704099 -8.919094 -24.443919 3.243796 0.163747 0.436036 0.064760
-27.317696 55.062142 7.071703 -176.469100 -21.165464 -1.930173 -2.008950 18.811675 1.375912 -0.267392 2.181478 0.217170 -0.449071 3.672196 0.372636 -1.821638 16.227876 1.413539 3.769467 16.566205 -8.703167 6.232615 -7.813111 -10.541406 3.444495 4.026900 -0.863415 5.728679 -14.539563 -11.855069 -33.282273 -80.392113 53.736465 3.248920 17.095148 5.037965 -4.342527 3.077724 0.627088 7.575596 -18.865733 5.620741 18.724669 -69.744310 -40.780725 -4.190368 5.950671 6.548963 0.100376 -54.393870 10.503741 -83.634353 87.003723 -88.652337 -10.231774 -19.946927 10.492661 0.084401 -0.010104 -0.155910 10.184963 -50.310696 -5.995391 108.779658 77.279330 105.667681 -8.905600 -24.423435 3.242873 0.146959 0.428442 0.064889
-27.321278 55.067946 7.076812 -176.461766 -21.182490 -1.939081 -2.009453 18.784611 1.368897 -0.264888 2.178081 0.216565 -0.434203 3.615005 0.358482 -1.812304 16.270763 1.425183 3.737368 16.506750 -8.680162 6.190592 -7.883373 -10.505848 3.453427 3.990456 -0.840611 5.701079 -14.472369 -11.834212 -32.782943 -80.405651 53.194646 3.282835 17.064446 5.043370 -4.355112 3.023550 0.631876 7.564264 -18.863215 5.628143 18.638283 -69.603574 -40.703539 -4.128517 5.915200 6.531960 0.083222 -54.364238 10.516956 -83.393712 87.019778 -88.418623 -10.342962 -19.989837 10.591495 0.061871 0.005504 -0.156778 10.203470 -50.290771 -6.007695 108.704350 77.284006 105.606908 -8.892220 -24.403432 3.245110 0.146519 0.421795 0.065898
-27.321197 55.075868 7.080914 -176.456906 -21.210077 -1.965903 -2.000648 18.757493 1.377738 -0.262956 2.185700 0.219490 -0.429796 3.609012 0.357135 -1.794648 16.260124 1.422706 3.704843 16.446943 -8.656826 6.148055 -7.953942 -10.469834 3.458931 3.952252 -0.818415 5.667068 -14.445431 -11.797636 -32.055529 -80.400483 52.431750 3.276277 17.040886 5.082817 -4.366708 2.970094 0.637012 7.560489 -18.857937 5.630926 18.552814 -69.464993 -40.632795 -4.153289 5.900833 6.529071 0.043260 -54.328629 10.562820 -83.235245 87.037392 -88.260007 -10.465233 -20.030758 10.692311 0.077971 0.040478 -0.196136 10.199451 -50.266178 -5.985210 108.660416 77.289649 105.582288 -8.861825 -24.337604 3.243655 0.122085 0.361982 0.056529
-27.322806 55.083990 7.088127 -176.448235 -21.220724 -1.978434 -2.002147 18.724566 1.374547 -0.260030 2.181103 0.218371 -0.425088 3.601729 0.355475 -1.788273 16.283365 1.429609 3.679623 16.353372 -8.649978 6.104662 -8.023034 -10.433194 3.471575 3.879765 -0.811430 5.630849 -14.416228 -11.759531 -31.296847 -80.406042 51.638768 3.233517 17.019840 5.136841 -4.365514 2.883552 0.629767 7.551979 -18.825424 5.641277 18.489664 -69.361350 -40.580258 -4.124666 5.882166 6.524521 -0.005052 -54.299422 10.594277 -82.903408 87.053146 -87.945102 -10.544280 -20.088612 10.784746 0.032333 0.061449 -0.208577 10.209413 -50.257747 -5.985811 108.616782 77.293091 105.550149 -8.864938 -24.313582 3.250413 0.118719 0.347649 0.055291
-27.321306 55.094302 7.092860 -176.446327 -21.246501 -2.002512 -1.993017 18.706546 1.385167 -0.257417 2.175649 0.216963 -0.424614 3.623108 0.362010 -1.776702 16.277442 1.428457 3.648872 16.258448 -8.642628 6.061972 -8.089301 -10.395107 3.480671 3.805115 -0.801763 5.599645 -14.355646 -11.731942 -30.630593 -80.438621 50.927887 3.236054 17.004988 5.182108 -4.361026 2.794965 0.620785 7.525506 -18.733962 5.671381 18.468471 -69.326823 -40.561926 -4.072695 5.868404 6.523547 -0.116680 -54.236095 10.673044 -82.274767 87.081064 -87.359286 -10.558277 -20.179795 10.863317 0.015748 0.098262 -0.222361 10.228224 -50.232435 -5.963565 108.563989 77.308923 105.521003 -8.878054 -24.291122 3.251492 0.122918 0.335566 0.066419
-27.318323 55.106266 7.095956 -176.452525 -21.280194 -2.026707 -1.976664 18.695711 1.397366 -0.255161 2.169544 0.215278 -0.422405 3.645300 0.369005 -1.750287 16.171021 1.393680 3.608781 16.259271 -8.589370 6.019218 -8.153161 -10.354710 3.476340 3.822698 -0.747393 5.571428 -14.258099 -11.710288 -30.049240 -80.502406 50.288457 3.234333 16.985084 5.227417 -4.369079 2.805075 0.639317 7.547593 -18.805630 5.650082 18.220646 -69.124592 -40.356588 -4.097753 5.857849 6.516876 -0.184532 -54.178645 10.722638 -81.846021 87.149319 -86.941612 -10.582465 -20.262278 10.922438 0.023013 0.123767 -0.237348 10.217450 -50.201875 -5.914290 108.542087 77.324423 105.506560 -8.878420 -24.267887 3.246580 0.123727 0.317848 0.072460
-27.315656 55.117949 7.101679 -176.453711 -21.292453 -2.042755 -1.970444 18.662943 1.395900 -0.252784 2.176128 0.219528 -0.414507 3.575903 0.348303 -1.741867 16.219779 1.405991 3.575380 16.185300 -8.572893 5.974895 -8.215484 -10.309979 3.491503 3.759228 -0.727575 5.540442 -14.262144 -11.687948 -29.099895 -80.479889 49.292408 3.209343 16.961335 5.284609 -4.360736 2.735128 0.632564 7.556177 -18.818496 5.639403 18.070928 -68.986393 -40.222258 -4.096198 5.852350 6.497874 -0.237757 -54.142876 10.752292 -81.427838 87.191159 -86.540452 -10.553451 -20.358315 10.983822 0.027001 0.153263 -0.250172 10.214688 -50.189980 -5.879333 108.509342 77.342604 105.471705 -8.883402 -24.244936 3.251736 0.120282 0.302922 0.070468
-27.311745 55.129892 7.108138 -176.453873 -21.293185 -2.058887 -1.967163 18.619046 1.389503 -0.250032 2.208389 0.236975 -0.413493 3.573280 0.347529 -1.728387 16.127399 1.365095 3.541947 16.154249 -8.526426 5.928755 -8.277004 -10.259361 3.501603 3.734371 -0.678707 5.508588 -14.224834 -11.669054 -28.252149 -80.490136 48.387734 3.178069 16.936973 5.349396 -4.362717 2.710983 0.648455 7.563966 -18.797439 5.633845 17.937292 -68.887100 -40.104812 -4.084746 5.850166 6.486535 -0.284576 -54.118594 10.779009 -80.999342 87.215512 -86.128489 -10.504458 -20.462258 11.048176 0.028028 0.183688 -0.261473 10.211953 -50.188931 -5.846910 108.460172 77.358206 105.425355 -8.898899 -24.223287 3.249662 0.124904 0.293637 0.081639
-27.307704 55.142860 7.112694 -176.453100 -21.298206 -2.069430 -1.965942 18.602024 1.387245 -0.248908 2.177885 0.224477 -0.407294 3.510062 0.318940 -1.705971 16.129840 1.363954 3.508519 16.125539 -8.473676 5.879441 -8.337457 -10.202330 3.506740 3.710166 -0.622813 5.478280 -14.164494 -11.650315 -27.440179 -80.520827 47.515221 3.141126 16.917863 5.423776 -4.366957 2.690447 0.667653 7.574357 -18.775423 5.626478 17.791155 -68.791910 -39.974343 -4.082175 5.856314 6.472479 -0.315678 -54.090915 10.786695 -80.619085 87.257659 -85.745254 -10.504533 -20.576212 11.107378 0.032939 0.216107 -0.267973 10.209942 -50.182400 -5.823285 108.420043 77.365789 105.381926 -8.898941 -24.203134 3.237461 0.111467 0.279329 0.092151
-27.303112 55.156347 7.115987 -176.459069 -21.302622 -2.074244 -1.959561 18.584396 1.380527 -0.248187 2.103099 0.185105 -0.400051 3.517839 0.328278 -1.685338 16.117824 1.358487 3.471902 16.078351 -8.429562 5.826608 -8.395276 -10.140591 3.508084 3.665637 -0.571647 5.447121 -14.099128 -11.635539 -26.658390 -80.552427 46.675152 3.065845 16.908076 5.513707 -4.372282 2.652389 0.676592 7.583780 -18.753753 5.622069 17.636301 -68.694012 -39.832860 -4.079045 5.864098 6.455314 -0.323725 -54.070304 10.788687 -80.411316 87.291684 -85.524386 -10.551098 -20.683362 11.175251 0.037413 0.239003 -0.270676 10.210072 -50.176881 -5.807960 108.371893 77.366794 105.331778 -8.886732 -24.177832 3.230575 0.090904 0.260064 0.086097
